Coordinates
version=1
nRows=9
nColumns=63
inDegrees=yes

Units are S.I. units (second, meters, Newtons, ...)
If the header above contains a line with 'inDegrees', this indicates whether rotational values are in degrees (yes) or radians (no).

endheader
time	pelvis_tilt	pelvis_list	pelvis_rotation	pelvis_tx	pelvis_ty	pelvis_tz	hip_flexion_r	hip_adduction_r	hip_rotation_r	knee_angle_r	knee_angle_r_beta	ankle_angle_r	subtalar_angle_r	mtp_angle_r	hip_flexion_l	hip_adduction_l	hip_rotation_l	knee_angle_l	knee_angle_l_beta	ankle_angle_l	subtalar_angle_l	mtp_angle_l	L5_S1_Flex_Ext	L5_S1_Lat_Bending	L5_S1_axial_rotation	L4_L5_Flex_Ext	L4_L5_Lat_Bending	L4_L5_axial_rotation	L3_L4_Flex_Ext	L3_L4_Lat_Bending	L3_L4_axial_rotation	L2_L3_Flex_Ext	L2_L3_Lat_Bending	L2_L3_axial_rotation	L1_L2_Flex_Ext	L1_L2_Lat_Bending	L1_L2_axial_rotation	L1_T12_Flex_Ext	L1_T12_Lat_Bending	L1_T12_axial_rotation	Abs_r3	Abs_r2	Abs_r1	Abs_t1	Abs_t2	neck_flexion	neck_bending	neck_rotation	arm_flex_r	arm_add_r	arm_rot_r	elbow_flex_r	pro_sup_r	wrist_flex_r	wrist_dev_r	arm_flex_l	arm_add_l	arm_rot_l	elbow_flex_l	pro_sup_l	wrist_flex_l	wrist_dev_l
0.000000	-5.097777	-3.735441	72.969893	0.196027	0.961957	0.431286	4.085672	-2.734425	6.195024	10.578993	0.184638	32.473081	14.294475	0.000000	2.976043	2.523377	-21.137878	11.863490	0.207057	29.359493	-0.802026	0.000000	0.143437	-0.431288	3.919160	0.266376	-0.573613	4.164108	0.235652	-1.048633	4.164108	0.163934	-1.048633	3.429265	0.133195	-0.879482	3.184318	0.081960	-0.668065	2.939370	1.024553	-4.878814	21.797195	0.000000	0.000000	26.761520	2.948174	-1.835779	47.896229	-6.799040	27.463858	44.566232	71.005067	21.558218	3.286998	49.832391	-3.517998	38.108856	43.410698	61.034726	10.588738	2.508387
0.016667	-4.994727	-3.869773	72.519257	0.197421	0.961451	0.432799	4.128233	-2.583929	5.718726	10.254360	0.178972	32.606782	15.077843	0.000000	3.073721	2.290675	-21.201251	11.785583	0.205697	29.296523	-0.962527	0.000000	0.147565	-0.424784	3.991613	0.274043	-0.564963	4.241089	0.242435	-1.032821	4.241089	0.168652	-1.032821	3.492661	0.137029	-0.866220	3.243185	0.084319	-0.657991	2.993710	1.054043	-4.805245	22.200153	0.000000	0.000000	26.706871	3.328649	-1.042618	48.204271	-6.594552	27.267964	44.304667	71.349652	22.082682	3.823252	50.225416	-3.897985	38.753958	43.382829	62.645108	11.310108	1.144861
0.033333	-4.904735	-3.979261	72.150885	0.198544	0.961000	0.434011	4.172135	-2.455981	5.355342	10.031801	0.175088	32.696417	15.649059	0.000000	3.148123	2.105124	-21.222640	11.719648	0.204546	29.259589	-1.138165	0.000000	0.152866	-0.417779	4.053778	0.283887	-0.555646	4.307139	0.251143	-1.015788	4.307139	0.174710	-1.015788	3.547055	0.141951	-0.851935	3.293694	0.087347	-0.647140	3.040333	1.091904	-4.726000	22.545895	0.000000	0.000000	26.680982	3.626468	-0.409212	48.506663	-6.448307	27.168542	44.016585	71.697949	22.715449	4.275376	50.543879	-4.189058	39.288122	43.351481	63.902823	11.932194	0.094938
0.050000	-4.827380	-4.065445	71.857114	0.199418	0.960601	0.434951	4.217168	-2.349560	5.093929	9.901726	0.172818	32.747632	16.029354	0.000000	3.201181	1.963280	-21.206715	11.664426	0.203583	29.245674	-1.326478	0.000000	0.159110	-0.410437	4.106287	0.295484	-0.545881	4.362930	0.261402	-0.997936	4.362930	0.181847	-0.997936	3.593001	0.147750	-0.836963	3.336358	0.090916	-0.635766	3.079715	1.136509	-4.642942	22.837936	0.000000	0.000000	26.680066	3.849213	0.078127	48.801101	-6.353355	27.155059	43.707996	72.044089	23.433775	4.651868	50.793786	-4.400990	39.720674	43.318074	64.835117	12.462766	-0.668922
0.066667	-4.762246	-4.129865	71.630280	0.200066	0.960254	0.435646	4.263123	-2.263645	4.923544	9.854547	0.171994	32.766076	16.239961	0.000000	3.234827	1.861698	-21.158147	11.618659	0.202784	29.251759	-1.525006	0.000000	0.166071	-0.402922	4.149773	0.308410	-0.535886	4.409133	0.272838	-0.979665	4.409133	0.189802	-0.979665	3.631051	0.154213	-0.821639	3.371690	0.094893	-0.624126	3.112330	1.186228	-4.557936	23.079791	0.000000	0.000000	26.700335	4.004469	0.433092	49.085282	-6.302749	27.216984	43.384914	72.382203	24.214914	4.961224	50.981147	-4.543558	40.060935	43.284029	65.469239	12.909591	-1.174258
0.083333	-4.708913	-4.174060	71.462718	0.200511	0.959957	0.436124	4.309788	-2.197215	4.833247	9.880676	0.172450	32.757394	16.302111	0.000000	3.250991	1.796934	-21.081607	11.581090	0.202128	29.274826	-1.731288	0.000000	0.173520	-0.395400	4.184867	0.322243	-0.525882	4.446421	0.285076	-0.961376	4.446421	0.198316	-0.961376	3.661759	0.161130	-0.806300	3.400205	0.099149	-0.612475	3.138650	1.239434	-4.472844	23.274975	0.000000	0.000000	26.738003	4.099818	0.669372	49.356902	-6.289539	27.343782	43.053351	72.706422	25.036122	5.211938	51.111967	-4.626535	40.318229	43.250770	65.832436	13.280438	-1.448612
0.100000	-4.666963	-4.199572	71.346766	0.200776	0.959708	0.436410	4.356955	-2.149248	4.812093	9.970524	0.174018	32.727232	16.237037	0.000000	3.251605	1.765543	-20.981763	11.550459	0.201594	29.311856	-1.942862	0.000000	0.181229	-0.388035	4.212202	0.336560	-0.516087	4.475465	0.297741	-0.943468	4.475465	0.207126	-0.943468	3.685677	0.168289	-0.791281	3.422414	0.103554	-0.601066	3.159152	1.294499	-4.389530	23.427005	0.000000	0.000000	26.789282	4.142842	0.800660	49.613657	-6.306777	27.524921	42.719318	73.010877	25.874653	5.412509	51.192255	-4.659697	40.501878	43.219718	65.951954	13.583075	-1.519523
0.116667	-4.635977	-4.207940	71.274759	0.200884	0.959505	0.436534	4.404413	-2.118722	4.849141	10.114503	0.176531	32.681238	16.065970	0.000000	3.238601	1.764080	-20.863287	11.525510	0.201158	29.359833	-2.157268	0.000000	0.188970	-0.380992	4.232410	0.350936	-0.506719	4.496935	0.310459	-0.926344	4.496935	0.215974	-0.926344	3.703359	0.175478	-0.776919	3.438833	0.107977	-0.590157	3.174307	1.349794	-4.309858	23.539394	0.000000	0.000000	26.850386	4.141125	0.840645	49.853244	-6.347514	27.749867	42.388829	73.289699	26.707763	5.571430	51.228019	-4.652818	40.621207	43.192293	65.855042	13.825271	-1.414531
0.133333	-4.615538	-4.200705	71.239033	0.200858	0.959346	0.436522	4.451951	-2.104617	4.933449	10.303025	0.179822	32.625058	15.810142	0.000000	3.213910	1.789101	-20.730850	11.504983	0.200800	29.415737	-2.372045	0.000000	0.196516	-0.374436	4.246122	0.364949	-0.497999	4.511505	0.322856	-0.910403	4.511505	0.224598	-0.910403	3.715357	0.182484	-0.763549	3.449974	0.112289	-0.580001	3.184592	1.403691	-4.235690	23.615658	0.000000	0.000000	26.917527	4.102251	0.803019	50.073359	-6.404801	28.008089	42.067896	73.537020	27.512706	5.697198	51.225266	-4.615674	40.685538	43.169919	65.568946	14.014795	-1.161177
